<svg xmlns="http://www.w3.org/2000/svg" viewBox="0 0 200 50">
  <!-- Shopping bag icon -->
  <path 
    d="M30 10h-4c0-4.4-3.6-8-8-8s-8 3.6-8 8h-4c-2.2 0-4 1.8-4 4v24c0 2.2 1.8 4 4 4h24c2.2 0 4-1.8 4-4V14c0-2.2-1.8-4-4-4zM18 6c2.2 0 4 1.8 4 4h-8c0-2.2 1.8-4 4-4z"
    fill="#44BCFF"
  />
  
  <!-- Text: Tejababa -->
  <text x="60" y="30" font-family="Arial, sans-serif" font-size="20" font-weight="bold" fill="url(#gradient)">Tejababa</text>
  
  <!-- Gradient underline -->
  <rect x="60" y="34" width="100" height="2" fill="url(#gradient)" />
  
  <!-- Define gradient -->
  <defs>
    <linearGradient id="gradient" x1="0%" y1="0%" x2="100%" y2="0%">
      <stop offset="0%" style="stop-color:#44BCFF" />
      <stop offset="50%" style="stop-color:#FF44EC" />
      <stop offset="100%" style="stop-color:#FF675E" />
    </linearGradient>
  </defs>
</svg>
